<?xml version="1.0" encoding="UTF-8"?><svg id="b" xmlns="http://www.w3.org/2000/svg" viewBox="0 0 406.59 406.59"><defs><style>.d{fill:#fffefc;}.e{fill:#4f0102;}</style></defs><g id="c"><rect class="e" width="406.59" height="406.59"/><path class="d" d="M181.42,91.2c33.86,0,58.08,1.65,72.66,4.93,14.58,3.29,26.35,8.76,35.32,16.41,8.97,7.66,13.46,16.16,13.46,25.52s-4.43,18.31-13.29,26.09c-8.86,7.78-21.2,13.44-37.01,16.98-15.81,3.54-40.2,5.31-73.17,5.31l-85.11-.38v-94.88h87.13ZM44.92,343h49.37v-129.6h27.91l177.68,129.6h61.08l-177.67-129.6c41.42-.12,73.89-3.13,97.4-9.03,23.51-5.89,41.59-14.6,54.24-26.12,12.65-11.52,18.98-24.89,18.98-40.09,0-18.24-9.18-33.6-27.54-46.07-18.36-12.48-42.21-20.61-71.54-24.41-19.48-2.53-56.65-3.8-111.5-3.8H44.92v279.12Z"/></g></svg>